<?xml version="1.0" standalone="no"?>
<!DOCTYPE svg PUBLIC "-//W3C//DTD SVG 20010904//EN"
 "http://www.w3.org/TR/2001/REC-SVG-20010904/DTD/svg10.dtd">
<svg version="1.0" xmlns="http://www.w3.org/2000/svg"
 width="528.000000pt" height="528.000000pt" viewBox="0 0 528.000000 528.000000"
 preserveAspectRatio="xMidYMid meet">
<metadata>
Created by potrace 1.11, written by Peter Selinger 2001-2013
</metadata>
<g transform="translate(0.000000,528.000000) scale(0.100000,-0.100000)"
fill="#000000" stroke="none">
<path d="M3235 4933 c4 -13 2 -24 -4 -24 -6 -1 -19 -2 -28 -3 -10 -1 -24 -5
-32 -10 -10 -6 -20 -2 -33 14 -10 12 -18 17 -18 10 0 -10 -3 -10 -14 -1 -9 8
-16 8 -20 2 -8 -12 4 -19 27 -16 9 2 15 -1 12 -5 -8 -13 -48 -2 -64 17 -12 16
-13 16 -8 1 5 -13 1 -16 -20 -12 -15 3 -30 7 -34 10 -4 2 -10 0 -14 -6 -3 -5
-11 -10 -16 -10 -6 0 -8 4 -5 8 3 5 -1 9 -9 9 -8 0 -12 -4 -9 -9 3 -4 0 -9 -5
-9 -6 -1 -17 -2 -23 -3 -7 -1 -21 1 -30 6 -10 5 -20 4 -24 -4 -4 -6 -3 -8 4
-4 6 3 14 1 18 -5 4 -8 3 -9 -4 -5 -7 4 -12 1 -12 -6 -1 -7 -7 -2 -15 12 -8
14 -14 20 -15 14 0 -6 -6 -11 -12 -12 -27 -2 -48 -8 -55 -17 -4 -4 -3 -5 4 -1
6 3 14 2 17 -3 7 -11 -13 -9 -33 3 -10 6 -12 5 -7 -2 4 -7 2 -13 -3 -13 -6 -1
-17 -2 -23 -3 -7 -1 -12 -9 -12 -19 1 -9 -2 -14 -7 -11 -5 3 -9 0 -9 -6 0 -6
-5 -8 -10 -5 -8 5 -7 12 2 23 10 12 10 14 1 8 -7 -4 -18 -16 -24 -28 -6 -11
-7 -18 -2 -15 5 4 10 0 10 -8 0 -10 -5 -11 -18 -4 -12 6 -20 5 -25 -3 -5 -7
-2 -8 7 -3 11 6 11 5 3 -4 -6 -7 -18 -14 -25 -15 -30 -6 -49 -19 -42 -29 4 -7
0 -8 -11 -4 -14 5 -17 3 -12 -8 7 -18 -10 -20 -18 -2 -3 6 -4 0 -1 -14 3 -16
-1 -31 -8 -38 -10 -8 -14 -7 -14 4 0 8 4 12 9 9 4 -3 8 0 8 5 0 6 -7 11 -15
11 -8 0 -15 -7 -15 -15 0 -9 -6 -12 -17 -8 -13 5 -15 2 -10 -12 7 -16 5 -16
-10 -4 -14 11 -15 11 -9 0 7 -10 3 -12 -15 -7 -13 3 -18 3 -11 0 15 -7 16 -34
1 -34 -5 0 -7 4 -4 10 3 5 0 7 -9 4 -8 -3 -12 -12 -9 -20 3 -8 -1 -14 -11 -14
-10 0 -13 6 -10 18 5 14 4 15 -5 2 -6 -8 -11 -23 -11 -33 0 -10 -5 -15 -10
-12 -6 4 -7 11 -4 17 4 7 2 8 -5 4 -6 -4 -9 -12 -6 -17 4 -5 1 -17 -5 -26 -11
-17 -11 -17 -6 0 3 9 1 17 -4 17 -6 0 -10 -6 -10 -12 0 -10 -2 -10 -9 0 -7 11
-9 11 -14 -2 -4 -9 -1 -16 5 -16 6 0 9 -2 6 -5 -3 -3 -16 -1 -30 4 -20 8 -24
6 -23 -8 0 -9 5 -23 10 -31 8 -13 7 -13 -8 -1 -15 12 -20 12 -33 -5 -14 -18
-15 -18 -5 3 6 12 16 24 23 26 7 3 8 6 2 6 -5 1 -20 -8 -32 -19 -12 -12 -22
-16 -22 -10 0 5 -4 10 -9 10 -5 0 -7 -10 -4 -22 4 -21 3 -21 -7 -5 -6 9 -16
15 -21 11 -7 -4 -6 -10 0 -18 8 -10 4 -12 -20 -11 -24 1 -33 -3 -37 -17 -4
-15 -7 -17 -13 -6 -7 10 -9 9 -9 -5 0 -11 -4 -15 -12 -11 -7 5 -9 2 -5 -9 6
-16 -15 -42 -26 -31 -3 3 -14 1 -24 -6 -16 -11 -16 -11 0 -6 15 5 16 3 6 -17
-15 -29 -24 -37 -16 -14 4 9 2 17 -3 17 -9 0 -14 -14 -12 -32 1 -3 -5 -11 -12
-18 -11 -8 -16 -8 -22 1 -5 8 -3 9 6 4 9 -6 11 -4 5 5 -6 9 -4 11 5 5 9 -6 11
-4 6 4 -6 9 -13 8 -27 -5 -20 -18 -25 -29 -9 -19 6 3 10 1 10 -4 0 -11 -13
-15 -37 -12 -7 1 -13 -5 -13 -14 0 -9 5 -13 10 -10 16 10 11 -1 -7 -16 -10 -8
-14 -9 -10 -2 4 6 4 14 -1 17 -4 2 -14 -9 -21 -25 -7 -16 -16 -27 -21 -24 -4
2 -15 -4 -23 -13 -10 -11 -28 -17 -48 -16 -24 2 -29 -1 -24 -14 5 -12 1 -12
-16 4 l-22 19 13 -25 c13 -24 12 -24 -5 -10 -17 14 -18 13 -12 -2 3 -10 2 -20
-4 -23 -5 -4 -9 -3 -8 2 1 4 1 15 0 23 -1 13 -2 13 -11 0 -8 -12 -10 -12 -10
-1 0 8 -3 11 -6 8 -4 -4 -1 -14 7 -24 8 -9 9 -14 2 -10 -6 4 -14 1 -16 -5 -3
-8 -6 -6 -6 5 -1 19 -16 23 -27 5 -5 -7 -3 -8 5 -3 10 6 11 3 2 -14 -13 -24
-23 -29 -15 -7 4 11 -1 14 -23 11 -15 -2 -30 -4 -33 -5 -3 -2 -9 -1 -15 0 -5
1 -6 -2 -2 -6 12 -12 38 -14 31 -2 -4 7 -2 8 4 4 21 -13 13 -27 -13 -22 -13 3
-30 8 -35 11 -14 9 -50 -23 -50 -43 0 -12 -3 -12 -15 4 -11 13 -13 14 -9 3 5
-17 -20 -34 -37 -23 -5 3 -8 1 -7 -3 2 -5 -10 -22 -27 -37 -16 -15 -24 -25
-17 -21 20 10 14 -9 -7 -22 -12 -8 -21 -9 -25 -2 -2 5 -3 4 -2 -3 2 -7 -4 -19
-13 -26 -14 -12 -14 -13 2 -8 11 3 16 2 12 -4 -3 -6 -13 -10 -21 -10 -9 0 -12
-5 -8 -12 5 -8 2 -9 -10 -5 -9 4 -15 3 -11 -2 3 -6 -3 -14 -12 -20 -10 -5 -18
-18 -18 -28 0 -11 -7 -17 -18 -17 -13 2 -15 -1 -7 -11 8 -9 8 -14 0 -17 -6 -2
-12 -12 -14 -21 -1 -10 -9 -23 -17 -28 -10 -8 -7 -8 10 -4 16 5 21 4 17 -4 -4
-6 -14 -11 -23 -11 -9 0 -13 -3 -10 -7 4 -3 2 -12 -3 -19 -8 -8 -6 -16 4 -27
14 -13 13 -15 -4 -20 -21 -5 -21 -34 -1 -47 9 -5 10 -9 2 -14 -6 -4 -9 -11 -6
-16 3 -4 -2 -13 -10 -20 -12 -10 -13 -16 -3 -28 11 -13 10 -15 -6 -9 -16 6
-17 5 -6 -8 7 -8 9 -15 5 -15 -4 0 -2 -7 5 -15 11 -13 10 -14 -2 -10 -18 7
-32 -21 -16 -31 7 -5 8 -2 3 6 -5 9 -4 11 4 6 6 -4 9 -12 5 -17 -3 -5 -10 -6
-16 -3 -8 5 -9 1 -4 -11 6 -16 4 -16 -10 -4 -16 13 -16 12 -7 -6 11 -22 6 -48
-8 -39 -9 5 -13 -9 -10 -35 2 -8 -2 -10 -11 -5 -10 6 -11 5 -1 -8 11 -12 9
-19 -7 -38 -18 -21 -25 -41 -21 -63 1 -5 -4 -5 -10 -1 -9 5 -10 2 -6 -10 4
-10 3 -15 -3 -11 -6 3 -10 -1 -10 -10 0 -9 -4 -13 -10 -10 -5 3 -10 -1 -10
-10 0 -9 5 -13 11 -10 6 4 5 -2 -2 -13 -10 -16 -16 -18 -26 -10 -11 9 -12 6
-4 -15 8 -21 7 -28 -5 -35 -16 -9 -19 -32 -11 -69 4 -15 2 -20 -8 -17 -8 3
-12 -1 -12 -13 1 -10 -4 -17 -11 -15 -8 1 -11 -2 -7 -8 3 -6 11 -8 16 -5 5 4
9 1 9 -4 0 -6 -7 -11 -16 -11 -14 0 -15 -2 -3 -17 13 -15 12 -15 -7 -5 -16 9
-21 8 -21 -3 0 -8 4 -12 9 -9 15 10 8 -9 -9 -23 -11 -9 -12 -12 -3 -7 12 5 13
4 3 -6 -10 -11 -15 -11 -30 1 -14 11 -14 9 2 -10 11 -14 14 -21 6 -16 -10 6
-12 2 -6 -16 3 -13 3 -19 -2 -14 -11 13 -36 18 -28 5 3 -5 2 -10 -4 -10 -5 0
-8 -9 -6 -21 4 -18 2 -19 -12 -7 -15 12 -15 11 -3 -12 13 -24 12 -24 -5 -10
-17 14 -17 14 -7 -7 8 -14 9 -24 2 -28 -6 -4 -8 -10 -5 -15 3 -4 -2 -11 -11
-14 -15 -6 -15 -4 0 19 9 14 13 25 9 25 -5 0 -16 -14 -25 -31 -10 -16 -14 -27
-8 -24 5 3 11 1 15 -5 6 -9 -7 -14 -21 -7 -3 1 -10 -6 -16 -16 -8 -15 -12 -16
-26 -5 -16 12 -16 11 -2 -6 14 -18 13 -19 -5 -13 -16 6 -15 3 5 -13 l25 -20
-27 10 c-24 8 -28 7 -28 -9 0 -23 -19 -39 -42 -36 -9 2 -19 -4 -23 -13 -5 -14
-7 -14 -15 -2 -8 12 -10 11 -10 -5 -1 -19 -1 -19 -14 -2 -12 16 -14 16 -20 2
-3 -9 -11 -13 -17 -9 -8 4 -9 3 -5 -5 4 -6 13 -8 19 -4 7 4 6 0 -2 -10 -7 -9
-19 -17 -25 -17 -6 0 -4 5 4 10 11 7 3 9 -27 7 -31 -1 -39 -5 -31 -14 7 -9 7
-13 0 -13 -6 0 -13 4 -17 10 -3 5 -12 7 -20 4 -8 -4 -13 -10 -10 -14 3 -5 0
-12 -6 -16 -8 -4 -9 -3 -5 4 4 7 4 12 -1 13 -4 0 -16 2 -25 4 -10 2 -15 -2
-12 -10 3 -7 0 -16 -7 -21 -8 -5 -10 -3 -4 6 6 10 4 12 -9 7 -9 -4 -15 -3 -11
3 3 5 -3 8 -14 7 -11 0 -18 -4 -15 -8 2 -4 0 -10 -6 -14 -5 -3 -10 0 -10 8 0
9 -9 14 -24 13 -20 -1 -22 -4 -13 -15 10 -12 8 -12 -13 -1 -22 12 -23 11 -13
-1 10 -13 8 -15 -17 -13 -16 1 -34 5 -42 10 -9 5 -8 2 2 -11 14 -17 14 -18 -7
-7 -30 17 -41 15 -17 -3 17 -13 16 -14 -16 -5 -19 6 -36 10 -37 10 -1 0 0 -8
3 -17 5 -15 4 -16 -5 -3 -10 13 -12 13 -21 0 -6 -10 -10 -11 -10 -3 0 14 -26
13 -50 -1 -12 -7 -13 -6 -2 5 18 19 15 26 -11 23 -12 -1 -25 -3 -29 -3 -4 -1
-8 -555 -8 -1231 l0 -1230 894 0 c823 0 895 2 907 17 8 9 9 14 3 10 -7 -4 -11
5 -12 23 0 16 4 33 10 36 6 4 8 2 4 -4 -3 -6 -2 -13 3 -16 10 -7 9 20 -2 30
-3 4 -15 1 -24 -7 -16 -13 -17 -12 -4 4 7 9 19 17 26 17 7 0 16 7 19 16 3 8 2
13 -3 10 -5 -3 -14 1 -21 9 -11 13 -10 14 4 9 9 -3 16 -1 16 5 0 6 -8 11 -17
12 -16 0 -16 1 -2 7 9 4 15 14 13 22 -1 8 -5 25 -8 37 -3 13 0 25 5 28 5 4 7
11 4 16 -4 5 0 9 8 9 10 0 14 8 11 23 -2 12 -2 16 2 10 9 -20 24 -15 17 5 -6
15 -5 16 12 2 17 -14 17 -14 7 6 -10 18 -8 20 19 18 30 -2 30 -2 12 19 -10 11
-13 17 -6 14 6 -4 15 -3 18 3 5 8 11 7 21 -1 10 -8 14 -8 14 0 0 6 5 11 11 11
5 0 7 -6 4 -12 -4 -7 0 -4 9 6 8 10 17 24 19 30 3 6 8 7 13 2 5 -5 4 -11 -3
-13 -7 -3 -13 -9 -13 -15 0 -6 7 -5 16 3 12 10 17 10 23 0 6 -10 10 -9 14 4 4
9 3 13 -3 10 -6 -3 -10 -2 -10 3 0 5 9 12 20 15 11 3 18 1 14 -4 -3 -5 0 -9 5
-9 6 0 11 4 11 10 0 5 7 6 17 3 12 -5 14 -3 8 7 -5 9 -4 11 4 6 6 -4 9 -12 6
-17 -4 -5 -1 -9 4 -9 10 0 15 12 13 31 -1 3 9 4 21 3 12 -1 22 -3 22 -4 0 -8
36 -6 42 2 4 7 1 8 -8 3 -8 -5 -11 -4 -6 0 4 5 17 10 29 12 18 3 19 1 7 -14
-12 -16 -12 -17 2 -6 9 7 20 9 24 5 5 -4 5 -1 1 6 -4 6 -3 12 3 12 5 0 18 3
28 6 13 4 14 3 5 -4 -11 -7 -11 -10 3 -15 9 -4 14 -3 11 2 -3 5 1 15 10 22 13
10 17 10 24 -1 7 -12 12 -11 28 3 10 10 25 16 33 14 8 -2 11 -2 7 0 -5 3 -8
12 -7 21 0 11 2 12 6 5 2 -7 12 -13 21 -13 15 0 15 2 2 11 -12 8 -8 10 17 7
18 -3 30 -1 27 3 -2 4 0 10 6 14 5 3 10 1 10 -5 0 -6 5 -8 10 -5 8 5 7 12 -2
23 -12 16 -11 16 7 2 11 -8 23 -19 27 -25 5 -6 8 -5 8 4 0 8 7 11 20 8 11 -3
18 -2 16 2 -3 4 -1 13 5 21 7 12 9 12 9 -3 0 -10 5 -15 10 -12 6 4 8 11 5 16
-4 5 -1 9 5 9 6 0 13 -7 16 -15 5 -12 8 -12 20 0 20 20 17 30 -3 14 -16 -13
-17 -12 -5 3 13 17 42 14 42 -3 0 -5 5 -9 11 -9 8 0 7 5 -1 15 -7 9 -10 19 -6
22 4 4 10 3 14 -2 4 -6 13 -11 21 -13 12 -3 12 -1 0 14 -8 10 -9 15 -2 11 6
-4 14 -1 16 5 4 10 6 10 6 0 1 -10 5 -10 16 2 9 8 22 13 30 10 8 -4 15 -1 15
6 0 6 5 8 10 5 6 -4 10 -3 9 2 -3 19 3 47 8 35 4 -10 9 -9 20 5 8 10 12 13 9
6 -4 -6 -2 -15 4 -18 6 -4 9 -1 8 7 -2 7 2 12 9 11 6 -1 17 5 25 14 11 14 11
16 -1 8 -10 -6 -12 -4 -6 5 6 10 11 9 23 -6 13 -18 14 -17 8 8 -6 25 -4 28 16
24 13 -2 32 4 42 13 11 9 16 10 12 4 -5 -9 0 -13 14 -13 12 0 18 5 15 10 -3 6
-1 10 4 10 6 0 11 -4 11 -9 0 -5 11 -8 24 -7 13 0 22 5 18 10 -3 5 2 6 12 3
10 -4 15 -3 11 3 -3 6 -3 15 1 22 5 8 11 6 20 -6 11 -16 13 -16 19 3 3 12 3
26 -1 33 -6 9 -3 9 9 -1 14 -11 20 -11 32 -1 8 7 21 10 29 7 18 -7 36 12 29
32 -4 9 -3 13 2 9 4 -4 15 -2 24 5 14 10 14 10 3 -5 -10 -12 -10 -18 -1 -24 8
-4 9 -3 5 4 -4 7 -1 12 9 12 9 0 13 5 10 10 -3 6 -2 10 4 10 5 0 12 -6 14 -12
3 -8 6 -6 6 5 1 9 8 17 16 17 8 0 14 3 12 8 -1 4 1 7 4 7 3 0 12 5 20 12 16
13 36 12 57 -1 8 -5 12 -3 10 6 -2 7 3 12 10 11 11 -3 17 17 13 40 -1 4 8 3
19 -3 17 -9 20 -8 20 7 1 16 2 16 16 -2 15 -19 15 -19 10 10 -4 17 -3 24 0 18
7 -16 25 -17 21 -2 -1 6 4 14 12 17 8 2 11 0 8 -5 -3 -5 3 -9 14 -9 12 0 15 4
9 10 -15 15 -12 30 3 17 10 -8 14 -7 14 4 0 8 -5 15 -10 15 -6 0 -7 3 -3 7 4
4 16 -3 27 -17 l19 -25 -10 28 c-8 22 -7 26 3 20 6 -4 25 -8 40 -8 25 -1 26 1
12 11 -15 11 -14 13 4 26 12 8 19 17 16 20 -3 2 5 4 18 3 32 -3 59 16 44 29
-7 6 -10 10 -8 9 2 -2 11 3 19 10 13 9 14 9 8 -1 -4 -6 -2 -12 3 -12 15 0 14
23 -1 39 -11 11 -10 12 2 5 8 -5 24 -10 35 -11 16 -3 17 -1 5 7 -8 5 -10 10
-5 10 6 0 3 5 -5 10 -11 8 -7 9 15 4 28 -6 29 -6 10 9 -18 14 -18 15 8 12 15
-2 29 1 32 5 3 5 -4 7 -16 5 -17 -4 -19 -2 -9 10 7 8 20 15 29 15 14 0 14 2 1
10 -14 9 -7 14 13 11 5 -1 6 3 2 9 -3 6 -10 8 -15 5 -5 -3 -12 -1 -15 5 -4 6
-3 10 2 9 4 -1 19 0 33 1 17 2 19 4 8 7 -9 2 -16 13 -15 24 1 21 17 27 17 7 0
-9 3 -9 9 1 6 9 5 24 0 39 -8 22 -8 23 6 12 8 -7 18 -10 22 -6 3 3 2 6 -4 6
-6 0 -14 7 -17 16 -3 8 -2 12 4 9 9 -6 13 7 13 46 0 9 7 16 15 15 8 0 17 5 20
13 3 9 0 11 -9 7 -8 -4 -1 4 15 17 16 14 25 30 22 36 -9 14 16 10 26 -4 4 -5
6 4 4 22 -2 25 0 30 12 25 11 -4 13 -2 7 8 -6 10 -1 12 24 7 29 -6 31 -5 16 9
-18 19 -11 34 17 34 13 0 18 5 15 15 -5 11 -1 12 19 5 35 -14 41 -12 19 4 -18
13 -18 14 3 25 14 8 22 8 22 1 0 -5 4 -10 9 -10 5 0 7 10 4 23 -4 18 -3 19 7
7 10 -13 11 -11 7 7 -3 15 -1 20 9 16 7 -2 10 -12 7 -21 -4 -15 -3 -15 6 -2
15 21 14 43 -1 34 -8 -4 -10 -3 -5 2 5 5 13 10 18 10 5 1 14 2 20 3 5 0 8 5 5
9 -2 4 5 9 17 9 18 2 19 0 7 -8 -13 -9 -13 -10 0 -6 8 2 15 10 15 18 0 16 14
24 23 13 4 -4 1 -4 -7 1 -10 5 -12 4 -7 -4 10 -15 26 -4 26 17 1 15 2 15 15
-2 17 -23 20 -14 5 14 -9 16 -8 19 7 13 10 -3 15 -3 11 2 -11 12 11 35 28 28
9 -3 14 2 14 15 0 12 13 28 31 40 25 15 28 20 14 25 -10 5 -14 3 -9 -5 4 -7 3
-8 -5 -4 -16 10 -3 27 17 24 9 -2 17 2 17 9 0 6 3 15 8 19 4 4 7 16 7 26 0 13
4 17 13 12 7 -5 6 0 -3 11 -10 13 -11 16 -2 11 20 -12 43 24 30 48 -6 11 -6
16 0 12 5 -3 17 3 26 13 11 12 14 21 7 25 -13 9 -11 76 3 76 5 0 1 6 -9 14
-17 12 -18 16 -5 32 8 10 10 15 4 11 -14 -8 -37 16 -26 28 4 5 1 5 -5 1 -7 -4
-13 -2 -13 4 0 6 -5 8 -12 4 -7 -5 -8 -3 -4 5 5 7 15 10 23 7 8 -3 11 -1 8 4
-3 6 -14 10 -23 11 -11 1 -8 4 8 9 24 8 24 8 3 9 -13 1 -23 6 -23 12 0 5 6 7
13 3 7 -5 6 0 -3 11 -9 11 -10 16 -2 11 7 -4 12 -1 12 8 0 9 -6 16 -12 16 -10
0 -10 2 0 9 8 4 13 11 13 15 -2 16 0 18 12 8 10 -8 13 -5 12 16 0 19 6 28 20
30 11 2 25 9 30 14 7 8 5 9 -7 5 -12 -4 -18 -1 -18 8 0 9 6 12 16 8 12 -4 15
0 12 17 -2 13 3 25 11 28 9 3 11 -2 7 -19 -7 -24 -7 -24 8 1 8 14 10 27 5 28
-5 2 -9 8 -9 13 0 4 7 6 15 3 9 -4 15 0 15 10 0 10 -6 13 -17 10 -15 -5 -15
-4 -3 4 8 6 18 8 24 5 5 -4 7 1 3 10 -3 9 -2 19 4 22 5 4 6 12 2 18 -4 7 1 6
10 -2 15 -12 17 -12 11 4 -5 12 1 24 17 37 13 11 18 16 10 12 -11 -5 -13 -3
-8 10 4 10 7 20 7 22 0 3 5 2 12 -2 7 -4 8 -3 4 5 -6 9 -11 9 -24 -1 -10 -8
-13 -8 -9 -1 4 6 4 13 0 16 -5 2 -2 2 4 1 15 -4 28 40 17 58 -6 11 -5 11 8 0
14 -11 16 -10 13 5 -1 10 -8 17 -15 15 -6 -1 -9 2 -5 7 3 6 13 7 23 4 13 -5
14 -3 5 7 -13 14 -7 40 9 40 6 0 4 -8 -3 -17 -13 -16 -12 -17 3 -4 10 7 16 17
13 21 -3 5 -2 10 2 13 5 2 3 2 -4 1 -7 -2 -10 3 -6 12 3 8 11 13 18 11 6 -3
12 1 12 8 0 7 -7 11 -16 8 -11 -3 -10 0 3 11 18 14 15 21 -7 17 -4 -1 -2 8 5
18 7 11 16 17 21 14 5 -3 3 -10 -4 -15 -11 -8 -11 -9 1 -5 8 2 14 10 12 17 -1
7 2 18 9 26 6 7 8 18 5 23 -4 5 2 14 11 20 11 6 13 11 5 11 -7 0 -12 8 -10 18
2 10 -2 16 -10 14 -8 -1 -11 2 -7 8 4 6 16 8 28 5 13 -4 17 -3 11 2 -6 4 -10
16 -8 26 1 9 -2 17 -8 17 -6 0 -5 6 2 15 7 8 9 15 5 15 -4 0 -1 8 6 17 9 10 9
14 2 10 -7 -5 -17 2 -24 15 -12 22 -11 22 7 8 18 -15 18 -14 2 11 -15 24 -15
27 0 44 9 10 12 15 7 12 -6 -3 -17 4 -25 16 -12 20 -12 21 3 8 22 -18 22 -3 0
22 -17 19 -17 20 4 9 18 -10 21 -9 19 5 -2 8 -11 22 -21 29 -10 8 -13 14 -7
14 7 0 12 5 12 11 0 6 -8 8 -17 5 -16 -5 -16 -4 -3 6 13 11 19 51 10 68 -1 3
-3 19 -4 35 -1 17 -5 35 -9 42 -4 6 -3 14 3 18 16 10 12 25 -7 25 -15 0 -16 2
-3 9 8 6 18 7 22 5 15 -9 8 3 -9 17 -11 10 -14 10 -9 2 4 -7 2 -13 -3 -13 -15
0 -14 13 2 29 10 11 7 12 -13 7 -20 -6 -22 -5 -8 4 10 6 15 17 11 26 -3 9 0
20 8 25 11 7 11 9 1 9 -7 0 -10 5 -7 10 3 6 -4 14 -17 19 -16 7 -18 10 -6 10
9 1 20 6 24 13 4 7 3 8 -4 4 -21 -12 -32 3 -22 29 7 19 6 23 -4 19 -8 -3 -17
0 -22 7 -4 7 -3 10 4 5 7 -4 9 8 7 36 -2 24 -5 45 -6 48 -1 3 -1 8 0 13 0 4
-6 7 -14 7 -8 0 -15 5 -15 11 0 5 6 7 13 3 9 -5 9 -4 0 6 -6 7 -9 20 -6 29 4
14 3 14 -7 1 -10 -13 -11 -11 -7 7 4 19 2 21 -13 13 -33 -18 -36 -10 -5 11
l30 21 -30 -6 c-16 -4 -25 -3 -19 1 6 4 10 16 9 25 -2 9 2 15 8 14 7 -2 9 -1
4 1 -4 3 -5 9 -2 14 4 5 -1 6 -11 2 -14 -5 -15 -3 -4 16 9 18 9 22 -4 19 -8
-2 -15 0 -15 5 -3 26 0 29 17 16 16 -13 16 -13 0 7 -12 14 -15 24 -8 32 7 9 7
9 -2 2 -13 -11 -35 -14 -25 -4 8 8 -18 60 -35 70 -8 5 -7 0 2 -12 14 -19 14
-19 -8 0 -22 19 -30 32 -13 22 5 -3 11 1 14 9 4 10 1 12 -10 8 -11 -4 -14 -3
-9 6 5 8 3 11 -5 10 -8 -1 -22 1 -32 6 -14 6 -15 10 -6 16 13 8 22 39 11 37
-22 -4 -42 16 -36 36 6 21 6 21 -9 1 -15 -19 -16 -18 -12 15 2 19 1 29 -2 23
-8 -20 -26 -15 -21 5 6 21 -27 48 -52 43 -11 -2 -10 3 5 20 11 13 13 18 4 12
-12 -10 -18 -8 -29 7 -15 21 -36 28 -24 8 4 -7 3 -8 -4 -4 -6 4 -8 14 -5 23 5
12 2 15 -9 10 -10 -3 -23 3 -34 19 -11 13 -25 24 -32 24 -8 0 -10 5 -6 13 5 7
0 6 -11 -3 -11 -9 -16 -10 -11 -2 4 7 2 12 -4 12 -14 0 -42 27 -38 36 2 4 -7
8 -19 9 -12 1 -20 -2 -17 -6 2 -4 -1 -11 -7 -15 -7 -4 -9 -3 -6 3 4 6 -2 22
-14 34 -11 13 -18 19 -16 14 3 -6 -5 -15 -18 -21 -24 -12 -24 -11 -7 15 l16
26 -24 -20 c-20 -17 -22 -18 -17 -3 3 10 2 20 -4 23 -5 4 -8 2 -7 -3 2 -6 0
-10 -4 -11 -22 -3 -28 0 -22 11 5 7 3 8 -5 4 -7 -5 -10 -14 -8 -20 3 -7 0 -13
-7 -13 -8 0 -11 10 -9 26 4 25 3 25 -11 -4 -12 -23 -14 -25 -10 -6 5 18 3 22
-7 15 -20 -12 -38 -14 -44 -4 -3 5 3 7 14 5 14 -3 18 1 14 12 -4 10 -8 11 -13
3 -4 -6 -10 -11 -14 -11 -24 3 -27 0 -15 -16 13 -15 12 -15 -9 -2 -12 8 -18
15 -12 17 5 2 10 8 10 13 0 5 -11 4 -26 -1 -32 -12 -44 -6 -39 20 5 26 -4 26
-13 -1 -8 -20 -9 -20 -23 -3 -11 15 -12 16 0 9 10 -5 12 -4 7 4 -4 6 -11 9
-16 6 -4 -3 -11 1 -14 7 -3 7 -4 2 -1 -12 3 -14 2 -20 -1 -13 -3 7 -12 9 -19
7 -8 -3 -26 6 -40 20 -14 14 -25 21 -25 17 0 -5 -12 -8 -27 -8 -16 0 -22 2
-15 4 6 3 12 9 12 14 0 6 -8 6 -19 -1 -23 -12 -54 -3 -44 14 3 6 3 8 -2 4 -4
-4 -17 -3 -28 3 -14 8 -18 8 -13 0 4 -6 2 -11 -4 -11 -6 0 -8 -5 -4 -12 4 -7
3 -8 -5 -4 -6 4 -8 13 -4 19 4 7 0 6 -10 -2 -20 -16 -23 -2 -4 19 10 11 9 11
-7 0 -10 -8 -32 -13 -49 -11 -17 1 -34 -3 -39 -11 -8 -10 -9 -9 -5 4 3 9 -1
19 -9 22 -9 3 -12 1 -9 -4 3 -6 -1 -10 -9 -10 -9 0 -16 8 -17 18 0 14 -2 14
-8 -3 -5 -11 -7 -23 -4 -28 2 -4 -7 -2 -21 4 -14 7 -23 15 -21 20 3 4 0 11 -6
15 -8 4 -9 3 -5 -5 5 -8 -1 -10 -23 -6 -21 4 -31 1 -31 -7 0 -8 -3 -9 -8 -3
-4 6 -16 11 -27 12 -20 1 -20 1 -1 -13 11 -8 16 -14 10 -14 -14 0 -29 13 -43
35 -11 19 -12 19 -6 -2z m86 -36 c-10 -9 -11 -8 -5 6 3 10 9 15 12 12 3 -3 0
-11 -7 -18z m309 -7 c0 -5 -2 -10 -4 -10 -3 0 -8 5 -11 10 -3 6 -1 10 4 10 6
0 11 -4 11 -10z m-786 -12 c-3 -5 -10 -6 -15 -3 -5 4 -9 1 -9 -6 0 -7 -3 -10
-6 -6 -9 9 3 24 20 24 8 0 13 -4 10 -9z m131 2 c3 -6 -1 -7 -9 -4 -18 7 -21
14 -7 14 6 0 13 -4 16 -10z m105 4 c0 -8 -19 -13 -24 -6 -3 5 1 9 9 9 8 0 15
-2 15 -3z m-303 -40 c-3 -3 -12 -4 -19 -1 -8 3 -5 6 6 6 11 1 17 -2 13 -5z
m-167 -94 c0 -5 -5 -10 -11 -10 -5 0 -7 5 -4 10 3 6 8 10 11 10 2 0 4 -4 4
-10z m1623 -15 c-3 -9 -8 -14 -10 -11 -3 3 -2 9 2 15 9 16 15 13 8 -4z m328
-302 c12 -16 12 -17 -2 -6 -9 7 -20 9 -24 5 -5 -4 -5 -1 -1 6 9 16 11 15 27
-5z m87 -148 c-3 -3 -9 2 -12 12 -6 14 -5 15 5 6 7 -7 10 -15 7 -18z m-3110
-206 c3 -11 2 -12 -6 0 -8 10 -13 8 -26 -10 -18 -26 -22 -18 -5 12 11 22 30
21 37 -2z m-108 -58 c0 -5 -9 -13 -21 -16 -17 -6 -18 -9 -7 -23 12 -15 11 -16
-5 -3 -18 14 -18 15 5 33 27 21 28 21 28 9z m3330 -16 c7 -9 8 -15 2 -15 -5 0
-12 7 -16 15 -3 8 -4 15 -2 15 2 0 9 -7 16 -15z m50 -199 c0 -3 -4 -8 -10 -11
-5 -3 -10 -1 -10 4 0 6 5 11 10 11 6 0 10 -2 10 -4z m-3566 -24 c3 -5 -1 -9
-9 -9 -8 0 -12 4 -9 9 3 4 7 8 9 8 2 0 6 -4 9 -8z m3581 -150 c-3 -3 -11 0
-18 7 -9 10 -8 11 6 5 10 -3 15 -9 12 -12z m1 -38 c-3 -7 -1 -16 4 -19 13 -8
13 -25 -1 -25 -5 0 -7 5 -4 10 3 6 2 10 -3 10 -6 0 -9 11 -8 24 0 13 5 22 9
19 5 -3 6 -11 3 -19z m4 -69 c-7 -9 -15 -13 -19 -10 -3 3 1 10 9 15 21 14 24
12 10 -5z m25 -75 c3 -6 -1 -7 -9 -4 -18 7 -21 14 -7 14 6 0 13 -4 16 -10z m2
-183 c0 -8 -6 -14 -14 -14 -9 0 -10 4 -2 14 6 7 12 13 14 13 1 0 2 -6 2 -13z
m-22 -177 c-3 -5 -12 -10 -18 -10 -7 0 -6 4 3 10 19 12 23 12 15 0z m-4053
-437 c-6 -2 -9 -10 -6 -15 4 -7 2 -8 -5 -4 -13 9 -5 26 12 25 9 0 8 -2 -1 -6z
m3793 -353 c3 -5 2 -10 -4 -10 -5 0 -13 5 -16 10 -3 6 -2 10 4 10 5 0 13 -4
16 -10z m15 -74 c0 -3 -4 -8 -10 -11 -5 -3 -10 -1 -10 4 0 6 5 11 10 11 6 0
10 -2 10 -4z m5 -55 c3 -5 2 -12 -3 -15 -5 -3 -9 1 -9 9 0 17 3 19 12 6z m-25
-66 c0 -7 -30 -13 -34 -7 -3 4 4 9 15 9 10 1 19 0 19 -2z m-58 -88 c-7 -8 -8
-18 -4 -22 4 -5 1 -5 -5 -1 -10 5 -10 11 -1 26 7 11 14 17 17 15 2 -3 -1 -11
-7 -18z m-467 -417 c3 -5 1 -10 -4 -10 -6 0 -11 5 -11 10 0 6 2 10 4 10 3 0 8
-4 11 -10z m-110 -220 c3 -6 -1 -7 -9 -4 -18 7 -21 14 -7 14 6 0 13 -4 16 -10z
m-165 -245 c0 -12 -19 -12 -23 0 -4 9 -1 12 9 8 7 -3 14 -7 14 -8z m-85 -35
c3 -5 1 -10 -4 -10 -6 0 -11 5 -11 10 0 6 2 10 4 10 3 0 8 -4 11 -10z m-10
-30 c3 -6 -1 -7 -9 -4 -18 7 -21 14 -7 14 6 0 13 -4 16 -10z m-225 -125 c-7
-9 -15 -13 -19 -10 -3 3 1 10 9 15 21 14 24 12 10 -5z m-206 -106 c-3 -5 -10
-7 -15 -3 -5 3 -7 10 -3 15 3 5 10 7 15 3 5 -3 7 -10 3 -15z m-160 -58 c3 -5
-1 -11 -9 -14 -9 -4 -12 -1 -8 9 6 16 10 17 17 5z m-189 -71 c3 -6 -1 -7 -9
-4 -18 7 -21 14 -7 14 6 0 13 -4 16 -10z m-85 -55 c-7 -9 -15 -13 -19 -10 -3
3 1 10 9 15 21 14 24 12 10 -5z m-240 -84 c0 -14 -29 -21 -36 -9 -4 6 -3 8 4
4 6 -3 13 -2 17 4 8 12 15 13 15 1z m-170 -54 c0 -2 -8 -11 -18 -20 -15 -14
-19 -15 -19 -2 0 8 4 12 8 9 4 -2 10 0 14 6 6 10 15 14 15 7z m-212 -62 c-3
-3 -9 2 -12 12 -6 14 -5 15 5 6 7 -7 10 -15 7 -18z"/>
<path d="M3144 4919 c-2 -4 0 -10 6 -14 11 -7 30 2 30 14 0 10 -29 10 -36 0z"/>
<path d="M3390 4920 c0 -5 5 -10 10 -10 6 0 10 5 10 10 0 6 -4 10 -10 10 -5 0
-10 -4 -10 -10z"/>
<path d="M3760 4883 c0 -13 38 -38 46 -30 3 2 1 12 -2 21 -5 14 -9 15 -15 4
-7 -11 -11 -10 -19 2 -6 9 -10 11 -10 3z"/>
<path d="M3900 4830 c-8 -5 -10 -10 -5 -10 6 0 17 5 25 10 8 5 11 10 5 10 -5
0 -17 -5 -25 -10z"/>
<path d="M4575 4400 c4 -6 11 -8 16 -5 14 9 11 15 -7 15 -8 0 -12 -5 -9 -10z"/>
<path d="M1835 4238 c-11 -6 -23 -15 -26 -20 -3 -6 -9 -9 -13 -9 -6 1 -8 -7
-3 -11 1 -2 18 9 37 24 37 29 39 35 5 16z"/>
<path d="M1165 3603 c3 -3 0 -11 -5 -18 -7 -8 -5 -12 4 -12 14 0 16 22 3 32
-4 3 -5 2 -2 -2z"/>
<path d="M1110 3400 c0 -5 5 -10 11 -10 5 0 7 5 4 10 -3 6 -8 10 -11 10 -2 0
-4 -4 -4 -10z"/>
<path d="M1076 3308 c3 -5 10 -6 15 -3 13 9 11 12 -6 12 -8 0 -12 -4 -9 -9z"/>
<path d="M4839 3033 c-13 -16 -12 -17 4 -4 16 13 21 21 13 21 -2 0 -10 -8 -17
-17z"/>
<path d="M4725 2720 c3 -5 8 -10 11 -10 2 0 4 5 4 10 0 6 -5 10 -11 10 -5 0
-7 -4 -4 -10z"/>
<path d="M680 2589 c0 -5 5 -7 10 -4 6 3 10 8 10 11 0 2 -4 4 -10 4 -5 0 -10
-5 -10 -11z"/>
<path d="M4588 2513 c7 -3 16 -2 19 1 4 3 -2 6 -13 5 -11 0 -14 -3 -6 -6z"/>
<path d="M4590 2119 c0 -5 5 -7 10 -4 6 3 10 8 10 11 0 2 -4 4 -10 4 -5 0 -10
-5 -10 -11z"/>
<path d="M4460 1926 c0 -2 8 -10 18 -17 15 -13 16 -12 3 4 -13 16 -21 21 -21
13z"/>
<path d="M4416 1881 c-3 -5 1 -11 9 -14 9 -4 12 -1 8 9 -6 16 -10 17 -17 5z"/>
<path d="M3977 1469 c7 -7 15 -10 18 -7 3 3 -2 9 -12 12 -14 6 -15 5 -6 -5z"/>
<path d="M3385 911 c-3 -5 -2 -12 3 -15 5 -3 9 1 9 9 0 17 -3 19 -12 6z"/>
<path d="M2940 735 c0 -2 7 -8 15 -15 12 -10 15 -10 15 2 0 8 -7 15 -15 15 -8
0 -15 -1 -15 -2z"/>
<path d="M2155 439 c-4 -6 -5 -12 -2 -15 2 -3 7 2 10 11 7 17 1 20 -8 4z"/>
<path d="M2170 421 c0 -6 4 -13 10 -16 6 -3 7 1 4 9 -7 18 -14 21 -14 7z"/>
<path d="M1916 381 c-3 -5 1 -11 9 -14 9 -4 12 -1 8 9 -6 16 -10 17 -17 5z"/>
<path d="M1820 265 c-9 -10 -9 -15 -1 -15 6 0 11 5 11 11 0 5 5 7 12 3 7 -4 8
-3 4 4 -9 15 -11 15 -26 -3z"/>
</g>
</svg>
